<?xml version="1.0" standalone="no"?>
<!DOCTYPE svg PUBLIC "-//W3C//DTD SVG 20010904//EN"
 "http://www.w3.org/TR/2001/REC-SVG-20010904/DTD/svg10.dtd">
<svg version="1.0" xmlns="http://www.w3.org/2000/svg"
 width="1920.000000pt" height="1080.000000pt" viewBox="0 0 1920.000000 1080.000000"
 preserveAspectRatio="xMidYMid meet">

<g transform="translate(0.000000,1080.000000) scale(0.100000,-0.100000)"
fill="#000000" stroke="none">
<path d="M9130 8734 c-605 -72 -1215 -328 -1701 -715 -122 -97 -352 -320 -449
-434 -408 -481 -658 -1021 -771 -1666 -19 -107 -23 -172 -26 -468 -5 -377 0
-456 48 -696 76 -383 200 -720 379 -1030 461 -802 1209 -1370 2095 -1594 322
-81 588 -107 970 -96 627 19 1219 213 1755 576 312 211 618 511 849 831 246
341 441 778 535 1199 69 307 71 330 71 749 0 434 -7 495 -86 812 -124 495
-323 896 -648 1308 -104 132 -393 418 -531 524 -522 404 -1139 653 -1750 706
-162 14 -602 11 -740 -6z m180 -416 c0 -73 7 -288 15 -478 8 -190 21 -523 30
-740 8 -217 18 -434 21 -482 l6 -88 -36 0 c-29 0 -37 4 -41 23 -7 30 -28 509
-79 1774 -5 123 -8 117 62 122 22 1 22 0 22 -131z m786 88 c1 0 5 -275 8 -609
l7 -608 -38 3 -38 3 -12 425 c-6 234 -12 510 -12 613 l-1 189 43 -7 c23 -4 43
-8 43 -9z m-1902 -318 c6 -47 39 -426 90 -1048 l34 -405 -25 -23 c-14 -13 -27
-21 -29 -19 -6 5 -41 387 -95 1026 -44 521 -44 510 2 511 12 0 18 -12 23 -42z
m2279 -132 c18 -18 30 -283 19 -428 l-7 -97 -31 15 c-27 13 -32 23 -38 61 -8
58 -8 411 0 441 7 25 35 29 57 8z m-1520 -381 c10 -209 15 -390 12 -402 -4
-17 -13 -23 -34 -23 -35 0 -33 -20 -62 449 -24 376 -25 364 36 359 l30 -3 18
-380z m2283 231 c18 -14 19 -31 22 -296 l3 -281 -29 15 -29 15 -6 167 c-9 214
-9 379 0 387 9 10 17 9 39 -7z m-1515 -181 c4 -44 9 -208 12 -364 l6 -283 -37
7 c-20 4 -38 8 -38 8 -4 4 -24 543 -24 628 l0 96 38 -6 37 -6 6 -80z m1885 34
c18 -20 19 -57 22 -1196 2 -1121 2 -1174 -15 -1171 -16 3 -19 24 -24 248 -10
377 -18 2140 -10 2140 5 0 16 -9 27 -21z m-736 -179 c13 -8 15 -99 18 -705 1
-382 -1 -695 -5 -695 -4 0 -18 3 -30 6 l-23 6 0 699 c0 729 -1 715 40 689z
m-2254 -258 c13 -185 14 -235 4 -247 -14 -16 -46 -20 -54 -6 -7 10 -36 363
-36 431 0 44 3 49 28 58 15 5 30 6 35 3 4 -4 15 -112 23 -239z m-1350 -286
c35 -365 36 -380 18 -393 -27 -20 -42 -16 -48 15 -3 15 -21 169 -41 342 -19
173 -37 334 -39 356 -5 36 -1 49 26 85 l32 44 8 -35 c4 -19 24 -206 44 -414z
m3199 199 l35 -14 -2 -243 c-3 -234 -4 -243 -23 -246 -11 -1 -25 1 -31 5 -13
9 -32 513 -20 513 4 0 22 -7 41 -15z m-2891 -62 c3 -27 29 -297 56 -602 l51
-554 -28 -29 -29 -28 -57 587 c-32 324 -58 597 -57 607 0 19 36 66 50 66 4 0
10 -21 14 -47z m-509 -1113 c63 -569 122 -1097 131 -1173 12 -101 13 -142 5
-150 -6 -6 -13 -8 -16 -5 -5 5 -142 1047 -240 1823 -64 514 -61 458 -29 513
15 25 29 42 31 37 1 -6 54 -476 118 -1045z m-310 185 c20 -154 47 -361 61
-460 23 -170 23 -181 7 -193 -10 -7 -19 -9 -20 -5 -7 21 -133 907 -133 934 0
16 7 46 17 67 l16 37 8 -50 c5 -27 25 -176 44 -330z m4499 319 c14 -14 16 -67
16 -440 0 -415 0 -424 -20 -424 -40 0 -43 27 -48 462 -5 418 -5 418 16 418 11
0 28 -7 36 -16z m-1709 -164 c215 -46 446 -143 565 -238 79 -64 213 -196 279
-277 211 -258 342 -567 410 -972 64 -374 126 -1050 167 -1811 12 -238 13 -296
3 -309 -29 -34 -316 -154 -497 -208 -320 -94 -516 -125 -841 -132 l-254 -6 9
249 c14 375 11 1263 -4 1419 -16 156 -47 376 -66 457 -16 68 -21 62 96 104
180 64 298 136 298 181 0 38 -35 86 -75 104 -48 21 -56 20 -185 -34 -178 -73
-471 -153 -674 -183 -85 -13 -153 -15 -291 -11 -274 8 -409 40 -630 148 -238
116 -324 243 -313 464 10 190 83 340 248 505 58 59 119 116 137 128 l32 23
-14 -28 c-30 -57 -9 -119 49 -147 42 -20 69 -20 106 -1 57 30 76 104 41 161
-21 35 -78 60 -114 51 -74 -19 215 149 374 216 183 78 417 145 594 171 17 2
125 3 240 1 168 -3 230 -7 310 -25z m2460 -12 l25 -11 0 -356 c0 -196 -3 -373
-6 -393 -6 -34 -10 -38 -35 -38 l-29 0 0 405 c0 250 4 405 10 405 5 0 21 -5
35 -12z m352 -449 l31 -10 -5 -627 c-6 -793 -13 -956 -44 -1037 l-24 -60 -6
38 c-3 21 -2 318 2 660 4 342 8 718 8 835 1 116 3 212 5 212 1 0 17 -5 33 -11z
m-4963 -176 c10 -64 7 -92 -16 -146 l-23 -52 -7 50 c-13 99 -9 163 10 174 26
16 29 14 36 -26z m-510 -520 c6 -35 29 -211 106 -821 29 -223 35 -290 26 -281
-11 11 -168 1118 -160 1131 11 18 23 6 28 -29z m587 -364 c13 -24 41 -276 34
-300 -10 -30 -32 -22 -39 14 -7 41 -36 286 -36 311 0 16 2 16 16 6 8 -8 19
-21 25 -31z m684 -353 c9 -40 25 -238 19 -247 -8 -13 -30 -11 -42 4 -12 14
-36 252 -28 266 10 16 46 0 51 -23z m640 15 c8 -13 45 -580 44 -671 -2 -139
-18 -29 -44 305 -14 177 -25 333 -25 348 0 26 13 36 25 18z m-1541 -193 c6
-34 96 -830 96 -851 0 -7 -5 -6 -14 3 -10 10 -21 83 -36 230 -12 118 -32 303
-45 410 -14 107 -25 205 -25 218 0 34 17 26 24 -10z m4754 -353 c-3 -277 -5
-302 -23 -332 -10 -18 -23 -33 -27 -33 -4 0 -8 154 -8 342 l0 342 28 29 27 29
3 -39 c2 -21 2 -173 0 -338z m-765 -518 c2 -394 -1 -509 -10 -518 -11 -10 -13
93 -13 516 0 365 3 526 10 519 7 -7 11 -184 13 -517z m-2689 316 c16 -154 37
-446 32 -459 -3 -8 -12 -14 -20 -14 -15 0 -18 18 -45 329 l-17 201 22 0 c19 0
22 -7 28 -57z m-650 -271 c9 -15 60 -622 53 -629 -24 -23 -35 35 -56 272 -12
138 -25 277 -28 308 -5 48 -3 57 10 57 9 0 18 -4 21 -8z m390 -574 c3 -29 7
-93 8 -143 3 -74 0 -90 -12 -90 -16 0 -32 74 -44 211 -7 74 -7 74 18 74 22 0
25 -5 30 -52z"/>
<path d="M8548 5837 c-52 -44 -63 -107 -28 -164 34 -56 95 -76 148 -49 122 63
88 236 -46 236 -34 0 -54 -6 -74 -23z"/>
</g>
</svg>
